#!OML:ASF E:\emotionWalksFemale\Project 1\Capture day 1\Session 1\Female1.ASF
:FULLY-SPECIFIED
:DEGREES
403
root 8.89886 13.37 23.2231 209.015 -1.53931 -177.243
lowerback 23.9387 -0.32527 2.02193
upperback -3.01034 0.297995 1.04155
thorax -17.1147 -0.0126215 -0.0439088
lowerneck -12.0878 -3.50642 -3.60171
upperneck -20.503 -0.540355 5.4673
head -4.18356 1.1827 2.21604
rclavicle 2.75814e-015 2.98177e-015
rhumerus -52.8008 -3.19545 -46.4428
rradius 26.6338
rwrist 35.8943
rhand 1.89934 -56.1759
rfingers 7.12502
rthumb 27.4083 -84.2023
lclavicle 2.75814e-015 2.98177e-015
lhumerus -52.7514 12.9069 43.1694
lradius 33.233
lwrist -14.7439
lhand -16.2565 -32.2088
lfingers 7.12502
lthumb 9.95267 -2.46413
rfemur -65.6518 2.84735 26.6371
rtibia 72.3518
rfoot -34.0019 -22.5254
rtoes -7.32057
lfemur -70.7743 -1.50638 -17.4335
ltibia 75.5246
lfoot -35.754 7.5685
ltoes -42.1864
404
root 8.90636 13.2933 23.2212 209.197 -1.92689 -177.251
lowerback 23.9759 -0.20514 1.9535
upperback -2.84476 0.43558 1.09171
thorax -16.9298 0.0562754 0.0012843
lowerneck -11.8771 0.405084 -4.53528
upperneck -21.4829 -1.83887 4.39829
head -4.53085 -2.23907 2.27308
rclavicle 5.14355e-015 4.69629e-015
rhumerus -51.6484 -5.1005 -47.0917
rradius 26.0092
rwrist 37.4677
rhand 1.12315 -56.4759
rfingers 7.12502
rthumb 26.6657 -84.6176
lclavicle 5.14355e-015 4.69629e-015
lhumerus -51.9473 14.285 45.4839
lradius 32.9825
lwrist -15.1648
lhand -15.7325 -33.1217
lfingers 7.12502
lthumb 10.4582 -3.40183
rfemur -66.4458 2.79782 26.7651
rtibia 73.5652
rfoot -34.5031 -22.9048
rtoes -6.95892
lfemur -71.6392 -1.51992 -17.4172
ltibia 76.5177
lfoot -35.9876 7.34883
ltoes -42.7735
405
root 8.91641 13.2245 23.217 209.275 -2.4358 -177.303
lowerback 24.0812 -0.124395 1.98403
upperback -2.63724 0.540883 1.09177
thorax -16.734 0.0973844 -0.0567635
lowerneck -11.9573 0.264172 -4.63029
upperneck -21.9924 -2.10238 4.51451
head -4.66677 -2.41314 2.34088
rclavicle 5.5287e-016 2.17421e-015
rhumerus -50.3574 -6.96876 -48.049
rradius 25.5133
rwrist 39.3993
rhand 1.06174 -56.7595
rfingers 7.12502
rthumb 26.6069 -84.9102
lclavicle 5.5287e-016 2.17421e-015
lhumerus -50.8167 15.5157 48.0048
lradius 32.6387
lwrist -15.6143
lhand -15.7579 -32.0805
lfingers 7.12502
lthumb 10.4337 -2.35944
rfemur -67.0314 2.5666 26.9403
rtibia 74.6991
rfoot -35.0157 -23.1966
rtoes -6.67705
lfemur -72.3268 -1.59775 -17.4298
ltibia 77.4058
lfoot -36.2348 7.07503
ltoes -42.8953
406
root 8.92729 13.1607 23.2137 209.284 -3.08352 -177.402
lowerback 24.5149 -0.103912 2.05158
upperback -2.60821 0.596416 1.09126
thorax -16.9553 0.111485 -0.116474
lowerneck -12.0306 0.122852 -4.8055
upperneck -22.2195 -2.28418 4.71278
head -4.71502 -2.5145 2.43932
rclavicle -4.94477e-015 3.97569e-016
rhumerus -49.0636 -8.56653 -49.2013
rradius 25.0985
rwrist 41.3551
rhand 1.12825 -56.9624
rfingers 7.12502
rthumb 26.6706 -85.1034
lclavicle -4.94477e-015 3.97569e-016
lhumerus -49.9238 16.4205 50.7146
lradius 32.4095
lwrist -16.1215
lhand -14.8095 -33.9246
lfingers 7.12502
lthumb 11.3485 -4.25164
rfemur -67.534 2.12646 27.1834
rtibia 75.7917
rfoot -35.6227 -23.2599
rtoes -6.14396
lfemur -72.935 -1.73972 -17.4605
ltibia 78.227
lfoot -36.2524 6.58206
ltoes -42.3043
407
root 8.9385 13.0996 23.2117 209.22 -3.67267 -177.52
lowerback 24.7569 -0.0588095 2.05831
upperback -2.46698 0.6506 1.06717
thorax -16.9226 0.130149 -0.169768
lowerneck -12.073 -0.0171631 -4.88608
upperneck -22.4688 -2.48773 4.81152
head -4.77621 -2.63008 2.49153
rclavicle -2.18663e-015 -2.78299e-015
rhumerus -47.3077 -10.1641 -50.6269
rradius 24.5258
rwrist 43.083
rhand 0.766434 -57.0823
rfingers 7.12502
rthumb 26.3243 -85.2755
lclavicle -2.18663e-015 -2.78299e-015
lhumerus -48.7461 17.0652 53.7887
lradius 32.1217
lwrist -16.3746
lhand -14.6444 -34.661
lfingers 7.12502
lthumb 11.5077 -4.99688
rfemur -67.9197 1.83801 27.3122
rtibia 76.8407
rfoot -36.2454 -23.2572
rtoes -4.61367
lfemur -73.4331 -1.86927 -17.5224
ltibia 79.0028
lfoot -36.1555 6.07819
ltoes -41.6037
408
root 8.95288 13.0434 23.2126 209.133 -4.21663 -177.697
lowerback 25.0983 0.0299944 1.90163
upperback -2.41288 0.7188 1.02492
thorax -17.0577 0.169228 -0.156167
lowerneck -12.2004 -0.199134 -4.79936
upperneck -22.4177 -2.72552 4.79366
head -4.7309 -2.74473 2.46666
rclavicle 7.95139e-016 9.93923e-017
rhumerus -45.2573 -11.4346 -52.4108
rradius 23.8248
rwrist 44.4269
rhand 0.510128 -57.4705
rfingers 7.12502
rthumb 26.0789 -85.7002
lclavicle 7.95139e-016 9.93923e-017
lhumerus -47.491 17.2503 57.1328
lradius 31.8109
lwrist -16.2627
lhand -14.737 -35.0918
lfingers 7.12502
lthumb 11.4184 -5.42272
rfemur -68.2662 1.61736 27.3517
rtibia 77.8242
rfoot -36.6185 -23.4906
rtoes -3.71094
lfemur -73.8552 -1.98369 -17.6778
ltibia 79.706
lfoot -36.1501 5.89323
ltoes -41.906
409
root 8.96604 12.99 23.2104 209.083 -4.75507 -177.831
lowerback 25.2699 0.142097 1.73244
upperback -2.71919 0.822274 1.03188
thorax -16.8033 0.221343 -0.128758
lowerneck -12.3457 -0.371764 -4.86608
upperneck -22.3665 -2.91183 4.94657
head -4.67985 -2.82985 2.52123
rclavicle -9.93923e-017 -9.93923e-015
rhumerus -42.9303 -12.0612 -54.6274
rradius 23.3352
rwrist 45.5749
rhand 0.974608 -57.9158
rfingers 7.12502
rthumb 26.5235 -86.0791
lclavicle -9.93923e-017 -9.93923e-015
lhumerus -46.31 16.9102 60.8157
lradius 31.8179
lwrist -15.589
lhand -14.3321 -35.8752
lfingers 7.12502
lthumb 11.8089 -6.22816
rfemur -68.6518 1.33223 27.4728
rtibia 78.7115
rfoot -36.9602 -23.8256
rtoes -3.48883
lfemur -74.2762 -2.07623 -17.8027
ltibia 80.3587
lfoot -36.2767 5.42889
ltoes -41.6161
410
root 8.97608 12.9367 23.2029 209.001 -5.24477 -177.846
lowerback 25.3859 0.240372 1.71106
upperback -2.33655 0.935465 0.992682
thorax -17.1318 0.276778 -0.17015
lowerneck -12.3604 -0.522388 -5.00839
upperneck -22.521 -3.08097 5.17217
head -4.71152 -2.91745 2.6206
rclavicle 5.06901e-015 -1.66979e-014
rhumerus -40.1863 -12.433 -57.0294
rradius 22.8032
rwrist 47.2543
rhand 1.49968 -58.1607
rfingers 7.12502
rthumb 27.026 -86.2471
lclavicle 5.06901e-015 -1.66979e-014
lhumerus -45.1293 16.0105 64.7736
lradius 32.161
lwrist -14.4284
lhand -13.7804 -37.2172
lfingers 7.12502
lthumb 12.3408 -7.60139
rfemur -68.9105 1.12062 27.6595
rtibia 79.466
rfoot -37.3313 -24.0932
rtoes -2.85981
lfemur -74.6344 -2.09083 -17.8398
ltibia 80.978
lfoot -36.4063 4.48353
ltoes -39.8968
411
root 8.98966 12.9033 23.1922 208.632 -5.90377 -177.866
lowerback 25.5179 0.27221 1.76968
upperback -2.51518 0.990815 1.00162
thorax -16.6832 0.286008 -0.246374
lowerneck -12.3452 -0.665906 -5.04435
upperneck -22.5353 -3.24256 5.22367
head -4.70847 -2.98613 2.64205
rclavicle 7.05686e-015 2.48481e-015
rhumerus -36.8809 -11.835 -60.1718
rradius 22.5593
rwrist 46.4363
rhand 1.7989 -58.9059
rfingers 7.12502
rthumb 27.3123 -86.9476
lclavicle 7.05686e-015 2.48481e-015
lhumerus -43.7856 14.8862 68.7432
lradius 32.4803
lwrist -13.3688
lhand -13.4124 -38.3074
lfingers 7.12502
lthumb 12.6956 -8.71332
rfemur -68.6365 0.827926 27.9037
rtibia 80.041
rfoot -37.4896 -24.5496
rtoes -2.88731
lfemur -74.5625 -2.23998 -17.799
ltibia 81.4486
lfoot -36.4723 3.61617
ltoes -38.5077
412
root 9.00958 12.8884 23.1771 208.049 -6.73357 -177.92
lowerback 25.849 0.254118 1.82893
upperback -2.35747 0.978205 1.00598
thorax -16.6637 0.270395 -0.26963
lowerneck -12.2773 -0.783173 -4.94405
upperneck -22.4115 -3.36633 5.12953
head -4.67635 -3.02336 2.59
rclavicle 4.87022e-015 -5.1684e-015
rhumerus -33.2938 -10.913 -63.331
rradius 22.4204
rwrist 45.3057
rhand 1.57119 -59.6134
rfingers 7.12502
rthumb 27.0944 -87.6891
lclavicle 4.87022e-015 -5.1684e-015
lhumerus -42.4902 13.869 72.3607
lradius 32.8367
lwrist -13.0052
lhand -12.413 -38.4818
lfingers 7.12502
lthumb 13.659 -8.94997
rfemur -67.9632 0.473492 28.1736
rtibia 80.4772
rfoot -37.6088 -25.0408
rtoes -2.82833
lfemur -74.1478 -2.56448 -17.6633
ltibia 81.775
lfoot -36.4869 3.01694
ltoes -38.0488
413
root 9.03013 12.8643 23.162 207.636 -7.34435 -177.887
lowerback 25.8507 0.326519 1.72617
upperback -2.21911 1.03341 1.02432
thorax -16.5003 0.303573 -0.212356
lowerneck -12.1967 -0.837161 -4.78335
upperneck -22.314 -3.42176 4.98841
head -4.65992 -3.03224 2.51463
rclavicle -7.45443e-015 -2.98177e-015
rhumerus -29.3208 -9.63335 -66.4335
rradius 22.6227
rwrist 43.4521
rhand 1.7156 -60.3686
rfingers 7.12502
rthumb 27.2326 -88.4228
lclavicle -7.45443e-015 -2.98177e-015
lhumerus -41.5698 13.076 75.4638
lradius 33.4364
lwrist -13.0671
lhand -10.5524 -38.8315
lfingers 7.12502
lthumb 15.4516 -9.4291
rfemur -67.5694 0.374096 28.4149
rtibia 80.9219
rfoot -37.8551 -25.1771
rtoes -1.28188
lfemur -73.9633 -2.66952 -17.5382
ltibia 82.1125
lfoot -36.5014 2.60933
ltoes -37.9653
414
root 9.05183 12.8374 23.1562 207.338 -7.8045 -177.885
lowerback 26.2657 0.324381 1.64809
upperback -2.48632 1.01878 0.918855
thorax -17.0346 0.29768 -0.285025
lowerneck -12.3152 -0.86777 -4.59254
upperneck -21.7128 -3.3723 4.85077
head -4.45904 -2.95621 2.41512
rclavicle -1.02374e-014 -1.69961e-014
rhumerus -25.2869 -9.39317 -69.0852
rradius 21.9036
rwrist 42.4471
rhand 0.855656 -60.842
rfingers 7.12502
rthumb 26.4097 -89.0224
lclavicle -1.02374e-014 -1.69961e-014
lhumerus -41.8112 11.2527 77.8872
lradius 34.6267
lwrist -12.1307
lhand -8.94973 -39.7312
lfingers 7.12502
lthumb 16.9948 -10.4546
rfemur -67.4245 0.379176 28.5743
rtibia 81.3761
rfoot -38.0668 -25.3069
rtoes 0.276432
lfemur -73.9296 -2.63613 -17.5512
ltibia 82.4251
lfoot -36.4556 2.52422
ltoes -38.6727
415
root 9.07362 12.8077 23.1632 207.103 -8.35075 -178.021
lowerback 26.0538 0.321404 1.47375
upperback -2.33289 0.936582 0.861023
thorax -16.7438 0.276647 -0.217876
lowerneck -12.3475 -0.790485 -4.29702
upperneck -21.7139 -3.34907 4.36084
head -4.47246 -2.93911 2.21066
rclavicle 4.27387e-015 -1.5207e-014
rhumerus -21.2282 -6.48479 -72.3929
rradius 23.7955
rwrist 37.459
rhand -0.0609515 -62.0044
rfingers 7.12502
rthumb 25.532 90.3136
lclavicle 4.27387e-015 -1.5207e-014
lhumerus -40.2536 11.5203 79.8139
lradius 34.1719
lwrist -13.629
lhand -8.94853 -41.119
lfingers 7.12502
lthumb 16.996 -11.8426
rfemur -67.4246 0.261162 28.6367
rtibia 81.8003
rfoot -38.0698 -25.7131
rtoes 0.694667
lfemur -74.0525 -2.74215 -17.669
ltibia 82.71
lfoot -36.2349 2.4309
ltoes -39.1731
416
root 9.09129 12.7817 23.1637 206.92 -8.86997 -178.128
lowerback 25.8196 0.296479 1.5325
upperback -2.38976 0.901609 0.705381
thorax -16.6879 0.252069 -0.408209
lowerneck -12.1515 -0.77489 -4.07991
upperneck -21.5431 -3.32554 3.98655
head -4.46018 -2.89117 2.05291
rclavicle 1.13307e-014 3.18055e-015
rhumerus -16.8051 -5.27669 -75.0044
rradius 24.0591
rwrist 35.0207
rhand -1.43342 -61.327
rfingers 7.12502
rthumb 24.2167 270.182
lclavicle 1.13307e-014 3.18055e-015
lhumerus -39.5732 10.5957 81.3034
lradius 34.1491
lwrist -14.9735
lhand -9.64173 -42.8287
lfingers 7.12502
lthumb 16.3286 -13.4961
rfemur -67.3855 0.184133 28.6803
rtibia 82.1142
rfoot -38.0286 -26.1545
rtoes 0.942416
lfemur -74.1777 -2.8609 -17.7466
ltibia 82.9429
lfoot -36.0566 2.12454
ltoes -38.7001
417
root 9.11124 12.7844 23.1452 206.514 -9.26832 -178.133
lowerback 25.5655 0.326184 1.53265
upperback -2.03097 0.918796 0.604256
thorax -16.8525 0.25931 -0.519866
lowerneck -11.9986 -0.705698 -3.91724
upperneck -21.3409 -3.22259 3.61571
head -4.43352 -2.80047 1.90447
rclavicle -4.32357e-015 -1.96797e-014
rhumerus -12.2305 -3.82451 -77.3029
rradius 24.6788
rwrist 33.4864
rhand -2.65088 -62.0928
rfingers 7.12502
rthumb 23.049 90.7345
lclavicle -4.32357e-015 -1.96797e-014
lhumerus -38.9673 10.0182 82.1379
lradius 34.5697
lwrist -15.0857
lhand -8.3162 -41.854
lfingers 7.12502
lthumb 17.6046 -12.631
rfemur -66.7908 0.201945 28.7786
rtibia 82.1722
rfoot -38.0482 -26.5424
rtoes 0.679285
lfemur -73.707 -2.8295 -17.7579
ltibia 82.9857
lfoot -36.0026 1.56054
ltoes -37.3526
